<?xml version="1.0" encoding="UTF-8" standalone="no"?>
<svg
   width="28"
   height="17"
   viewBox="0 0 28 17"
   fill="none"
   version="1.1"
   id="svg3"
   sodipodi:docname="skipL.svg"
   inkscape:version="1.1.2 (b8e25be833, 2022-02-05)"
   xmlns:inkscape="http://www.inkscape.org/namespaces/inkscape"
   xmlns:sodipodi="http://sodipodi.sourceforge.net/DTD/sodipodi-0.dtd"
   xmlns="http://www.w3.org/2000/svg"
   xmlns:svg="http://www.w3.org/2000/svg">
  <defs
     id="defs7" />
  <sodipodi:namedview
     id="namedview5"
     pagecolor="#505050"
     bordercolor="#eeeeee"
     borderopacity="1"
     inkscape:pageshadow="0"
     inkscape:pageopacity="0"
     inkscape:pagecheckerboard="0"
     showgrid="false"
     inkscape:zoom="29.850008"
     inkscape:cx="21.373529"
     inkscape:cy="6.6666649"
     inkscape:window-width="1920"
     inkscape:window-height="1017"
     inkscape:window-x="-8"
     inkscape:window-y="-8"
     inkscape:window-maximized="1"
     inkscape:current-layer="svg3" />
  <path
     id="Vector"
     d="M 1.7872679,6.73971 12.414468,0.381491 c 0.2629,-0.159968 0.564,-0.246398 0.8717,-0.250258 0.3077,-0.00386 0.6108,0.074991 0.8777,0.228314 0.2895,0.168599 0.5292,0.410816 0.6949,0.702053 0.1656,0.29124 0.2512,0.62112 0.2481,0.95615 v 4.44794 l 10.16865,-6.085887 c 0.26291,-0.159968 0.56395,-0.246398 0.87167,-0.250258 0.30773,-0.00386 0.61085,0.074991 0.87768,0.228314 0.28953,0.168599 0.52929,0.410816 0.69492,0.702051 0.16563,0.29124 0.251235,0.62112 0.248125,0.95615 V 14.4512 c 0.0032,0.3351 -0.08235,0.6651 -0.247985,0.9564 -0.16564,0.2914 -0.40544,0.5337 -0.69506,0.7023 -0.26683,0.1533 -0.56995,0.2322 -0.87768,0.2283 -0.30772,-0.0038 -0.60876,-0.0903 -0.87167,-0.2502 L 15.106868,9.99928 v 4.44962 c 0.0036,0.3355 -0.0818,0.666 -0.2474,0.9577 -0.1657,0.2918 -0.4057,0.5345 -0.6956,0.7033 -0.2669,0.1533 -0.57,0.2322 -0.8777,0.2283 -0.3077,-0.0038 -0.6088,-0.0903 -0.8717,-0.2502 L 1.7872679,9.72976 c -0.2527,-0.15826 -0.4609,-0.37812 -0.6053,-0.63893 -0.1444,-0.26082 -0.22010001,-0.55405 -0.22010001,-0.85216 0,-0.29811 0.0757,-0.59134 0.22010001,-0.85216 0.1444,-0.26081 0.3526,-0.48067 0.6053,-0.63893 z"
     fill="#e1e1e6" />
</svg>
