<?xml version="1.0" encoding="UTF-8" standalone="no"?>
<svg
   height="48"
   width="48"
   fill="#271A45"
   version="1.1"
   id="svg4"
   sodipodi:docname="360.svg"
   inkscape:version="1.1.2 (b8e25be833, 2022-02-05)"
   xmlns:inkscape="http://www.inkscape.org/namespaces/inkscape"
   xmlns:sodipodi="http://sodipodi.sourceforge.net/DTD/sodipodi-0.dtd"
   xmlns="http://www.w3.org/2000/svg"
   xmlns:svg="http://www.w3.org/2000/svg">
  <defs
     id="defs8" />
  <sodipodi:namedview
     id="namedview6"
     pagecolor="#505050"
     bordercolor="#eeeeee"
     borderopacity="1"
     inkscape:pageshadow="0"
     inkscape:pageopacity="0"
     inkscape:pagecheckerboard="0"
     showgrid="false"
     inkscape:zoom="17.3125"
     inkscape:cx="23.971119"
     inkscape:cy="23.971119"
     inkscape:window-width="1920"
     inkscape:window-height="1017"
     inkscape:window-x="-8"
     inkscape:window-y="-8"
     inkscape:window-maximized="1"
     inkscape:current-layer="svg4" />
  <path
     d="M17.85 39.65 15.7 37.5l4-4.05q-6.8-.75-11.25-3.3T4 23.7q0-3.95 5.825-6.725Q15.65 14.2 24 14.2q8.4 0 14.2 2.775Q44 19.75 44 23.7q0 2.95-3.2 5.2t-8.5 3.5v-3.25q4-1 6.35-2.6Q41 24.95 41 23.7q0-1.6-4.175-4.05Q32.65 17.2 24 17.2q-8.6 0-12.8 2.45Q7 22.1 7 23.7q0 2.25 2.875 3.875t9.975 2.975L15.7 26.5l2.15-2.15 7.65 7.6Z"
     id="path2"
     style="fill:#d9cdf7;fill-opacity:1" />
</svg>
