<?xml version="1.0" encoding="UTF-8" standalone="no"?>
<svg
   height="36"
   width="52"
   version="1.1"
   id="svg4"
   sodipodi:docname="shopping_basket_FILL0_wght300_GRAD0_opsz48.svg"
   inkscape:version="1.1.2 (b8e25be833, 2022-02-05)"
   xmlns:inkscape="http://www.inkscape.org/namespaces/inkscape"
   xmlns:sodipodi="http://sodipodi.sourceforge.net/DTD/sodipodi-0.dtd"
   xmlns="http://www.w3.org/2000/svg"
   xmlns:svg="http://www.w3.org/2000/svg">
  <defs
     id="defs8" />
  <sodipodi:namedview
     id="namedview6"
     pagecolor="#505050"
     bordercolor="#eeeeee"
     borderopacity="1"
     inkscape:pageshadow="0"
     inkscape:pageopacity="0"
     inkscape:pagecheckerboard="0"
     showgrid="false"
     inkscape:snap-global="false"
     inkscape:zoom="34.625"
     inkscape:cx="39.711191"
     inkscape:cy="20.216607"
     inkscape:window-width="1920"
     inkscape:window-height="1017"
     inkscape:window-x="-8"
     inkscape:window-y="-8"
     inkscape:window-maximized="1"
     inkscape:current-layer="g2406" />
  <g
     id="g2406"
     transform="translate(0.00580535,-8.3939842)">
    <path
       id="path2"
       style="fill:#271a45;fill-opacity:1"
       d="m 21.574219,8.8535156 c -0.2,0 -0.375391,0.041667 -0.525391,0.125 -0.15,0.083333 -0.292448,0.2083334 -0.425781,0.375 L 12.023438,22.003906 H 2.0742188 c -0.4666667,0 -0.8416667,0.175391 -1.12500005,0.525391 -0.28333333,0.35 -0.35794271,0.725 -0.22460937,1.125 L 5.9746094,42.503906 c 0.1333333,0.433334 0.3833333,0.790886 0.75,1.074219 0.3666666,0.283333 0.7658854,0.425781 1.1992187,0.425781 H 35.074219 c 0.466666,0 0.892057,-0.133724 1.27539,-0.40039 0.383334,-0.266667 0.640105,-0.632943 0.773438,-1.09961 L 40.150391,31.837891 A 8.8953066,8.8953066 0 0 1 38.076172,31.033203 L 35.074219,41.753906 H 8.0742188 l -4.8496094,-17.5 H 33.460938 a 8.8953066,8.8953066 0 0 1 -0.07422,-1.033203 8.8953066,8.8953066 0 0 1 0.08594,-1.216797 H 31.02344 l -8.5,-12.6503904 c -0.133334,-0.1666666 -0.273829,-0.2916666 -0.423829,-0.375 -0.15,-0.083333 -0.32539,-0.125 -0.52539,-0.125 z m -0.05078,3.1503904 6.701171,10 H 14.82422 Z m 0.05078,18.75 c -0.633334,0 -1.166276,0.217058 -1.59961,0.650391 -0.433333,0.433333 -0.65039,0.966276 -0.65039,1.599609 0,0.633334 0.217057,1.166276 0.65039,1.59961 0.433334,0.433333 0.966276,0.65039 1.59961,0.65039 0.633333,0 1.166276,-0.217057 1.599609,-0.65039 0.433333,-0.433334 0.650391,-0.966276 0.650391,-1.59961 0,-0.633333 -0.217058,-1.166276 -0.650391,-1.599609 -0.433333,-0.433333 -0.966276,-0.650391 -1.599609,-0.650391 z" />
    <path
       id="path1101"
       style="opacity:1;fill:#271a45;fill-opacity:1;fill-rule:evenodd;stroke:#271a45;stroke-opacity:1"
       d="m 42.28125,14.324219 a 8.8953066,8.8953066 0 0 0 -8.894531,8.896484 8.8953066,8.8953066 0 0 0 8.894531,8.894531 8.8953066,8.8953066 0 0 0 8.896484,-8.894531 8.8953066,8.8953066 0 0 0 -8.896484,-8.896484 z m 0,0.992187 a 7.9034467,7.9034467 0 0 1 7.904297,7.904297 7.9034467,7.9034467 0 0 1 -7.904297,7.902344 7.9034467,7.9034467 0 0 1 -7.902344,-7.902344 7.9034467,7.9034467 0 0 1 7.902344,-7.904297 z" />
    <rect
       style="opacity:0.97;fill:#271a45;fill-rule:evenodd;stroke:#271a45;stroke-width:0.722651;stroke-opacity:1"
       id="rect847"
       width="11.103251"
       height="2.2540436"
       x="36.732864"
       y="22.076277"
       rx="0.54873633"
       ry="0.66426015" />
    <rect
       style="opacity:0.97;fill:#271a45;fill-rule:evenodd;stroke:#271a45;stroke-width:0.722651;stroke-opacity:1"
       id="rect2547"
       width="11.103251"
       height="2.2540436"
       x="17.730825"
       y="-43.367981"
       rx="0.54873633"
       ry="0.66426015"
       transform="rotate(89.892692)" />
  </g>
</svg>
