<?xml version="1.0" encoding="UTF-8" standalone="no"?>
<svg
   enable-background="new 0 0 512 512"
   height="40"
   id="Layer_1"
   version="1.1"
   viewBox="0 0 40 40"
   width="40"
   xml:space="preserve"
   sodipodi:docname="110827_moon_icon.svg"
   inkscape:version="1.1.2 (b8e25be833, 2022-02-05)"
   xmlns:inkscape="http://www.inkscape.org/namespaces/inkscape"
   xmlns:sodipodi="http://sodipodi.sourceforge.net/DTD/sodipodi-0.dtd"
   xmlns="http://www.w3.org/2000/svg"
   xmlns:svg="http://www.w3.org/2000/svg"><defs
     id="defs7" /><sodipodi:namedview
     id="namedview5"
     pagecolor="#505050"
     bordercolor="#eeeeee"
     borderopacity="1"
     inkscape:pageshadow="0"
     inkscape:pageopacity="0"
     inkscape:pagecheckerboard="0"
     showgrid="false"
     inkscape:zoom="9.1813396"
     inkscape:cx="-0.10891657"
     inkscape:cy="35.833551"
     inkscape:window-width="1920"
     inkscape:window-height="1017"
     inkscape:window-x="-8"
     inkscape:window-y="-8"
     inkscape:window-maximized="1"
     inkscape:current-layer="Layer_1" /><path
     d="m 34.755828,33.740279 c -7.820632,7.827063 -20.554427,7.827063 -28.3816453,0 -7.8270622,-7.827376 -7.8270622,-20.561011 0,-28.3849374 2.0712329,-2.0677832 4.5962583,-3.6457087 7.5002813,-4.67466111 0.914798,-0.32019504 1.9276,-0.0881239 2.606878,0.59460341 0.686177,0.6860204 0.918092,1.6986652 0.59476,2.6068778 -1.966644,5.5469654 -0.627219,11.5511723 3.488904,15.6674513 4.109694,4.112673 10.113901,5.448963 15.667296,3.488904 0.908213,-0.323332 1.92415,-0.09126 2.606878,0.594761 0.686177,0.679277 0.914798,1.695372 0.59131,2.606877 -1.022524,2.903866 -2.603585,5.428891 -4.674662,7.500124 z M 9.9218893,8.9030474 C 4.051435,14.7735 4.051435,24.325413 9.9218893,30.192575 16.194076,36.468053 26.876394,35.902772 32.344957,28.911793 26.706418,29.264604 21.153023,27.229436 17.0173,23.096849 12.881576,18.964418 10.849702,13.410868 11.202355,7.7724856 10.7517,8.1256098 10.323622,8.5013139 9.9218893,8.9030474 Z"
     fill="#1D1D1B"
     id="path2"
     style="fill:#271a45;fill-opacity:1;stroke-width:0.156804" /></svg>
