<?xml version="1.0" encoding="UTF-8" standalone="no"?>
<svg
   viewBox="0 0 38.666669 38.666669"
   width="29"
   height="29"
   version="1.1"
   id="svg4"
   sodipodi:docname="sun.svg"
   inkscape:version="1.1.2 (b8e25be833, 2022-02-05)"
   xmlns:inkscape="http://www.inkscape.org/namespaces/inkscape"
   xmlns:sodipodi="http://sodipodi.sourceforge.net/DTD/sodipodi-0.dtd"
   xmlns="http://www.w3.org/2000/svg"
   xmlns:svg="http://www.w3.org/2000/svg">
  <defs
     id="defs8" />
  <sodipodi:namedview
     id="namedview6"
     pagecolor="#505050"
     bordercolor="#eeeeee"
     borderopacity="1"
     inkscape:pageshadow="0"
     inkscape:pageopacity="0"
     inkscape:pagecheckerboard="0"
     showgrid="false"
     inkscape:zoom="8.65625"
     inkscape:cx="24.837545"
     inkscape:cy="22.180505"
     inkscape:window-width="1920"
     inkscape:window-height="1017"
     inkscape:window-x="-8"
     inkscape:window-y="-8"
     inkscape:window-maximized="1"
     inkscape:current-layer="svg4" />
  <path
     d="m 19.369434,9.9891699 c 5.22333,0 9.45728,4.2339501 9.45728,9.4572791 0,5.22333 -4.23395,9.45728 -9.45728,9.45728 -5.223329,0 -9.4572794,-4.23395 -9.4572794,-9.45728 0,-5.223329 4.2339504,-9.4572791 9.4572794,-9.4572791 z m 0,16.0046271 c 3.616319,0 6.547348,-2.931029 6.547348,-6.547348 0,-3.616318 -2.931029,-6.547347 -6.547348,-6.547347 -3.616318,0 -6.547347,2.931029 -6.547347,6.547347 0,3.616319 2.931029,6.547348 6.547347,6.547348 z M 20.824401,1.9868553 c 0,0.2662588 0,4.0986398 0,4.3648989 0,0.8038682 -0.651097,1.4549657 -1.454967,1.4549657 -0.803869,0 -1.454966,-0.6510975 -1.454966,-1.4549657 0,-0.2662591 0,-4.0986401 0,-4.3648989 0,-0.8038688 0.651097,-1.45496608 1.454966,-1.45496608 0.80387,0 1.454967,0.65109728 1.454967,1.45496608 z m 11.91981,6.1428664 c -0.188418,0.1884187 -2.898293,2.8982933 -3.086711,3.0867123 -0.568164,0.568164 -1.489158,0.568164 -2.057321,0 -0.568165,-0.568165 -0.568165,-1.4891579 0,-2.0573238 0.188417,-0.1884173 2.898291,-2.8982917 3.08671,-3.0867094 0.568164,-0.5681647 1.489158,-0.5681647 2.057322,0 0.568165,0.5681639 0.568165,1.489157 0,2.0573209 z m 4.084818,12.7716943 c -0.266259,0 -4.098639,0 -4.364899,0 -0.803869,0 -1.454966,-0.651097 -1.454966,-1.454967 0,-0.803869 0.651097,-1.454965 1.454966,-1.454965 0.26626,0 4.09864,0 4.364899,0 0.803868,0 1.454966,0.651096 1.454966,1.454965 0,0.80387 -0.651098,1.454967 -1.454966,1.454967 z m -6.142868,11.91981 c -0.188418,-0.188418 -2.898292,-2.898293 -3.08671,-3.086711 -0.568165,-0.568163 -0.568165,-1.489158 0,-2.057321 0.568164,-0.568165 1.489157,-0.568165 2.057322,0 0.188418,0.188417 2.898293,2.898291 3.08671,3.08671 0.568165,0.568164 0.568165,1.489158 0,2.057322 -0.568164,0.568165 -1.489158,0.568165 -2.057322,0 z m -12.771693,4.084818 c 0,-0.266259 0,-4.098639 0,-4.364899 0,-0.803869 0.651097,-1.454966 1.454966,-1.454966 0.80387,0 1.454967,0.651097 1.454967,1.454966 0,0.26626 0,4.09864 0,4.364899 0,0.803868 -0.651097,1.454966 -1.454967,1.454966 -0.803869,0 -1.454966,-0.651098 -1.454966,-1.454966 z M 5.9946571,30.763176 c 0.1884187,-0.188418 2.898293,-2.898292 3.0867109,-3.08671 0.5681649,-0.568165 1.489158,-0.568165 2.057322,0 0.568165,0.568164 0.568165,1.489158 0,2.057322 -0.188417,0.188418 -2.8982924,2.898293 -3.086711,3.08671 -0.5681639,0.568165 -1.4891571,0.568165 -2.0573219,0 -0.5681639,-0.568164 -0.5681639,-1.489158 0,-2.057322 z M 1.9098398,17.991484 c 0.2662586,0 4.09864,0 4.3648982,0 0.8038691,0 1.4549666,0.651096 1.4549666,1.454965 0,0.80387 -0.6510975,1.454967 -1.4549666,1.454967 -0.2662582,0 -4.0986396,0 -4.3648982,0 -0.8038689,0 -1.45496618,-0.651097 -1.45496618,-1.454967 0,-0.803869 0.65109728,-1.454965 1.45496618,-1.454965 z M 8.0527064,6.0716724 c 0.1884187,0.1884187 2.8982936,2.898293 3.0867116,3.0867109 0.568165,0.5681649 0.568165,1.4891577 0,2.0573227 -0.568164,0.568164 -1.4891572,0.568164 -2.0573231,0 C 8.8936776,11.027288 6.1838032,8.3174128 5.9953845,8.1289943 c -0.5681637,-0.5681639 -0.5681637,-1.4891571 0,-2.0573219 0.5681649,-0.5681639 1.489158,-0.5681639 2.0573219,0 z"
     id="path2"
     style="fill:#d9cdf7;fill-opacity:1;stroke-width:0.727483" />
</svg>
