<?xml version="1.0" encoding="UTF-8" standalone="no"?>
<svg
   width="19"
   height="22"
   viewBox="0 0 19 22"
   fill="none"
   version="1.1"
   id="svg3"
   sodipodi:docname="play.svg"
   inkscape:version="1.1.2 (b8e25be833, 2022-02-05)"
   xmlns:inkscape="http://www.inkscape.org/namespaces/inkscape"
   xmlns:sodipodi="http://sodipodi.sourceforge.net/DTD/sodipodi-0.dtd"
   xmlns="http://www.w3.org/2000/svg"
   xmlns:svg="http://www.w3.org/2000/svg">
  <defs
     id="defs7" />
  <sodipodi:namedview
     id="namedview5"
     pagecolor="#505050"
     bordercolor="#eeeeee"
     borderopacity="1"
     inkscape:pageshadow="0"
     inkscape:pageopacity="0"
     inkscape:pagecheckerboard="0"
     showgrid="false"
     inkscape:zoom="37.772727"
     inkscape:cx="9.5042119"
     inkscape:cy="11.013237"
     inkscape:window-width="1920"
     inkscape:window-height="1017"
     inkscape:window-x="-8"
     inkscape:window-y="-8"
     inkscape:window-maximized="1"
     inkscape:current-layer="svg3" />
  <path
     id="Vector"
     d="M2.32137 21.586C1.9759 21.5853 1.63655 21.4948 1.33669 21.3232C0.661484 20.9406 0.24173 20.1978 0.24173 19.3915V3.07398C0.24173 2.26542 0.661484 1.52494 1.33669 1.14232C1.64369 0.965889 1.99244 0.875158 2.3465 0.879612C2.70056 0.884066 3.04692 0.983543 3.34938 1.16764L17.2952 9.51547C17.5859 9.69772 17.8255 9.95079 17.9916 10.251C18.1577 10.5511 18.2448 10.8886 18.2448 11.2316C18.2448 11.5747 18.1577 11.9121 17.9916 12.2123C17.8255 12.5125 17.5859 12.7655 17.2952 12.9478L3.34713 21.2979C3.0376 21.485 2.68307 21.5846 2.32137 21.586V21.586Z"
     fill="#E1E1E6"
     style="fill:#000000;fill-opacity:1" />
</svg>
